<?xml version="1.0" encoding="UTF-8"?>
<svg version="1.1" xmlns="http://www.w3.org/2000/svg" width="444" height="252">
<path d="M0 0 C1.29859481 -0.00843994 2.59718962 -0.01687988 3.93513578 -0.02557558 C5.37441459 -0.01978044 6.81369226 -0.01369942 8.25296879 -0.00736332 C9.78331282 -0.01153577 11.31365377 -0.0170128 12.84398896 -0.02368313 C17.0511539 -0.03816814 21.25812346 -0.03388352 25.46529925 -0.02651632 C30.00185633 -0.0217945 34.53837054 -0.03428574 39.07491398 -0.04453373 C47.96303389 -0.06174635 56.85108318 -0.06255665 65.73921543 -0.05732083 C72.96206954 -0.05328253 80.18490274 -0.05471862 87.40775585 -0.06006908 C88.43500508 -0.06081751 89.46225432 -0.06156593 90.52063232 -0.06233703 C92.60735726 -0.06386848 94.69408221 -0.06540682 96.78080714 -0.066952 C116.35795936 -0.08068591 135.93507164 -0.07523305 155.51222295 -0.06376678 C173.42986948 -0.05383307 191.34741277 -0.06677589 209.26504337 -0.09070098 C227.6550632 -0.11507217 246.04503491 -0.12470475 264.43507057 -0.11804825 C274.76282253 -0.11455167 285.09049506 -0.11681699 295.41823483 -0.13429928 C304.20987808 -0.1489965 313.00138597 -0.14968922 321.7930265 -0.13222837 C326.27985475 -0.12369557 330.76644095 -0.12162422 335.2532568 -0.13687992 C339.35961875 -0.15066937 343.46552996 -0.14603842 347.57186545 -0.12664068 C349.05835261 -0.12286263 350.54487539 -0.12585438 352.031331 -0.13625234 C354.05055551 -0.14937408 356.06990161 -0.13548436 358.08911133 -0.12025452 C359.21113258 -0.12014718 360.33315384 -0.12003984 361.48917574 -0.11992925 C366.17730444 0.63215271 369.31162454 2.9479518 372.46119022 6.42931271 C374.27106303 11.08865767 373.99813579 15.64317676 373.94805241 20.59638119 C373.94849049 21.72852551 373.94892857 22.86066982 373.94937992 24.02712154 C373.94729131 27.76612295 373.92395596 31.50467498 373.90044498 35.24359798 C373.89484931 37.83719799 373.89057908 40.43080117 373.88758183 43.02440548 C373.87730103 49.1512863 373.85366116 55.27798189 373.82353336 61.40479296 C373.78997153 68.38177879 373.77349888 75.3587724 373.75844705 82.33581889 C373.72711096 96.68407125 373.67436162 111.03218826 373.60747623 125.38031673 C371.62747623 125.38031673 369.64747623 125.38031673 367.60747623 125.38031673 C367.60747623 97.00031673 367.60747623 68.62031673 367.60747623 39.38031673 C243.19747623 39.38031673 118.78747623 39.38031673 -9.39252377 39.38031673 C-9.31002377 72.62781673 -9.22752377 105.87531673 -9.14252377 140.13031673 C-9.12673275 150.63972103 -9.11094173 161.14912533 -9.0946722 171.97699642 C-9.06146445 181.37339977 -9.06146445 181.37339977 -9.02295589 190.76978207 C-9.00590693 194.96464286 -9.00009414 199.15936007 -9.00098324 203.35425472 C-9.00175211 208.69981 -8.98355755 214.04498032 -8.95143461 219.3904357 C-8.94289062 221.35552567 -8.94109553 223.32065889 -8.94669962 225.28575945 C-8.9532986 227.93450142 -8.93553882 230.58198261 -8.9115057 233.2305975 C-8.91926651 234.00469589 -8.92702732 234.77879429 -8.93502331 235.57635021 C-8.88240244 238.84829894 -8.73766343 240.91903783 -6.74907279 243.57678771 C-3.70721062 245.90480493 -1.98877578 245.88145527 1.82006931 245.8836813 C3.74592468 245.89932778 3.74592468 245.89932778 5.71068621 245.91529036 C7.13856541 245.9066418 8.56644236 245.89761516 9.99431705 245.8882513 C11.50872635 245.89285858 13.02313117 245.89921032 14.53752661 245.90716028 C18.7052655 245.92390084 22.87263933 245.91558596 27.04037976 245.90321541 C31.53261432 245.89418648 36.02478492 245.90812389 40.51700687 245.91913509 C49.31972632 245.93694803 58.12230956 245.93306801 66.9250344 245.92148453 C74.07737688 245.91246137 81.2296811 245.91122136 88.38202763 245.9155798 C89.90731871 245.91649919 89.90731871 245.91649919 91.46342376 245.91743717 C93.52897371 245.91871603 95.59452365 245.92001288 97.66007358 245.92132753 C117.04165036 245.93274146 136.42315155 245.91960689 155.80471593 245.89812607 C172.44522469 245.88025435 189.08562184 245.88335823 205.72612858 245.90180111 C225.03700744 245.92319348 244.34781999 245.93164274 263.65870905 245.91935205 C265.71678097 245.91807782 267.7748529 245.91682034 269.83292484 245.9155798 C270.84561051 245.91496269 271.85829618 245.91434559 272.90166929 245.91370979 C280.0477668 245.91025199 287.19382236 245.91609449 294.33991337 245.92549801 C303.04527485 245.93670124 311.75049201 245.93371331 320.45583689 245.91237503 C324.89987581 245.90184198 329.34367386 245.89778099 333.78771114 245.91097164 C337.85269231 245.92285496 341.91720843 245.91640071 345.98214716 245.89506143 C347.45583937 245.89057804 348.92957054 245.89290043 350.40323788 245.90256459 C352.40042626 245.9146614 354.39772406 245.89990708 356.39488316 245.8836813 C357.50605487 245.88303189 358.61722659 245.88238248 359.76207018 245.88171339 C363.30147677 245.25802503 364.48226005 244.23972687 366.60747623 241.38031673 C367.01022596 238.35550193 367.17177462 235.69015506 367.15337467 232.66449642 C367.16371235 231.78609097 367.17405003 230.90768551 367.18470097 230.00266171 C367.21417361 227.10231892 367.21562908 224.20267263 367.21685123 221.30219173 C367.23182986 219.29007285 367.24855634 217.27796628 367.2669611 215.26587582 C367.31068237 209.97227069 367.33064435 204.67883142 367.34569645 199.38507748 C367.36525026 193.98234893 367.40722222 188.57979996 367.44731998 183.17719173 C367.52267389 172.57828873 367.57293404 161.97942581 367.60747623 151.38031673 C369.58747623 151.38031673 371.56747623 151.38031673 373.60747623 151.38031673 C373.70019144 163.27193558 373.77124918 175.16346831 373.81472492 187.0553751 C373.83559204 192.57739315 373.86389409 198.09916375 373.90923405 203.62103939 C373.95272243 208.95082052 373.97661993 214.28036377 373.98698521 219.61030865 C373.99437115 221.64288102 374.00879422 223.6754405 374.03039646 225.70791149 C374.05946993 228.55684362 374.06343055 231.40479508 374.0615778 234.25385189 C374.0759589 235.09254818 374.09034 235.93124447 374.1051569 236.7953558 C374.06776676 242.11523275 373.2336055 245.22557277 369.60747623 249.38031673 C365.7215252 252.22094947 362.99216921 252.75625112 358.21495247 252.76063347 C356.26706026 252.77329338 356.26706026 252.77329338 354.27981669 252.78620905 C352.84053788 252.78041391 351.40126021 252.77433289 349.96198368 252.76799679 C348.43163964 252.77216924 346.9012987 252.77764627 345.37096351 252.7843166 C341.16379857 252.79880161 336.95682901 252.79451699 332.74965322 252.78714979 C328.21309614 252.78242796 323.67658192 252.79491921 319.14003849 252.8051672 C310.25191858 252.82237982 301.36386929 252.82319012 292.47573704 252.81795429 C285.25288293 252.813916 278.03004973 252.81535209 270.80719662 252.82070255 C269.26632277 252.82182519 269.26632277 252.82182519 267.69432015 252.8229705 C265.60759521 252.82450194 263.52087026 252.82604029 261.43414532 252.82758547 C241.85699311 252.84131938 222.27988083 252.83586652 202.70272952 252.82440025 C184.78508299 252.81446654 166.8675397 252.82740936 148.9499091 252.85133445 C130.55988927 252.87570564 112.16991756 252.88533822 93.77988189 252.87868172 C83.45212994 252.87518514 73.12445741 252.87745046 62.79671764 252.89493275 C54.00507439 252.90962997 45.2135665 252.91032268 36.42192597 252.89286184 C31.93509772 252.88432904 27.44851152 252.88225768 22.96169567 252.89751339 C18.85533372 252.91130284 14.74942251 252.90667189 10.64308702 252.88727415 C9.15659985 252.8834961 7.67007708 252.88648785 6.18362147 252.8968858 C4.16439696 252.91000755 2.14505086 252.89611783 0.12584114 252.88088799 C-0.99618011 252.88078065 -2.11820137 252.88067331 -3.27422327 252.88056272 C-8.00013462 252.12241956 -11.16075271 249.81770953 -14.24329376 246.22059441 C-15.90794681 242.10646854 -15.80985265 238.33543585 -15.78020382 233.93587399 C-15.78558936 232.980284 -15.79097489 232.02469402 -15.79652363 231.04014677 C-15.81083949 227.83577909 -15.80369043 224.63182239 -15.7965765 221.42743587 C-15.80227815 219.13104068 -15.80924161 216.83464833 -15.81737423 214.53826046 C-15.83534314 208.29864251 -15.83413022 202.05916489 -15.82843184 195.81952882 C-15.82534545 190.61307046 -15.83142631 185.40663926 -15.83747059 180.20018476 C-15.85233037 167.2167077 -15.84869197 154.23331867 -15.83660728 141.24984311 C-15.82667476 129.97652909 -15.83961563 118.7033792 -15.86354148 107.43009049 C-15.88792937 95.85177351 -15.89714132 84.27355164 -15.89088875 72.69520754 C-15.88751414 66.19599242 -15.88996782 59.69691292 -15.90713978 53.19771671 C-15.92258049 47.08684689 -15.91868501 40.97629099 -15.89983463 34.86543369 C-15.89614085 32.62165799 -15.89928008 30.37785918 -15.90972042 28.13410473 C-15.92287755 25.07295329 -15.91142902 22.01284917 -15.89372921 18.95174313 C-15.90813672 17.61735175 -15.90813672 17.61735175 -15.92283529 16.25600296 C-15.85825128 10.83372953 -15.11446898 7.60497355 -11.39252377 3.38031673 C-7.50511507 0.54139769 -4.77781684 0.0043829 0 0 Z M-9.39252377 13.38031673 C-9.39252377 19.98031673 -9.39252377 26.58031673 -9.39252377 33.38031673 C115.01747623 33.38031673 239.42747623 33.38031673 367.60747623 33.38031673 C367.60747623 26.78031673 367.60747623 20.18031673 367.60747623 13.38031673 C362.58639491 8.04472194 362.58639491 8.04472194 356.27462864 7.75111103 C354.98935071 7.73807229 353.70407279 7.72503356 352.37984705 7.71159971 C350.95559784 7.72240975 349.53135216 7.73369302 348.10711002 7.74539852 C346.59254694 7.73963778 345.07799084 7.73169698 343.56344938 7.7217623 C339.39983177 7.70085878 335.236786 7.71121979 331.07316613 7.72669339 C326.58364248 7.73798875 322.09421838 7.72055323 317.60471439 7.70679379 C308.80912455 7.68453739 300.0137478 7.68937324 291.21814954 7.70385699 C284.07107725 7.7151398 276.92406476 7.71668429 269.77698612 7.71123791 C268.76054961 7.71047174 267.7441131 7.70970558 266.69687548 7.70891619 C264.63213279 7.7073176 262.56739012 7.70569653 260.50264746 7.70405324 C241.13246485 7.6897887 221.76240047 7.70619952 202.39223725 7.73305507 C185.76454284 7.75539448 169.13702296 7.75151455 152.5093317 7.72846127 C133.20941242 7.70171571 113.90959681 7.69116206 94.60966158 7.70652258 C92.55242985 7.70811536 90.49519811 7.70968722 88.43796635 7.71123791 C86.91959139 7.71239497 86.91959139 7.71239497 85.3705422 7.71357542 C78.23040416 7.71789615 71.09033177 7.71059782 63.9502039 7.69884014 C55.25108666 7.68483043 46.55219507 7.68858285 37.85310376 7.71524386 C33.41293899 7.72840269 28.97315069 7.73349944 24.53298855 7.7169981 C20.47036718 7.70212797 16.40847215 7.71023741 12.34591693 7.73688586 C10.87425827 7.74248341 9.40253859 7.7396018 7.93091899 7.72750692 C5.93409595 7.71235105 3.93710164 7.73085435 1.94032383 7.75111103 C0.8300739 7.75192279 -0.28017602 7.75273455 -1.42406988 7.75357091 C-5.18806581 8.26622679 -5.18806581 8.26622679 -9.39252377 13.38031673 Z " fill="#B1B1B1" transform="translate(15.392523765563965,-0.38031673431396484)"/>
<path d="M0 0 C4.900865 0.27227028 6.75259387 2.52063628 10 6 C11.17703183 7.01230051 12.36506183 8.01192202 13.5625 9 C16.43651701 11.45985736 18.9762116 13.76193856 21 17 C21.25 20.3125 21.25 20.3125 21 23 C20.34 23 19.68 23 19 23 C19 23.66 19 24.32 19 25 C18.34 25 17.68 25 17 25 C17 25.66 17 26.32 17 27 C16.34 27 15.68 27 15 27 C15 27.66 15 28.32 15 29 C12.625 31.625 12.625 31.625 10 34 C9.34 34 8.68 34 8 34 C8 34.66 8 35.32 8 36 C6.8125 37.625 6.8125 37.625 5 39 C2.4375 39.3125 2.4375 39.3125 0 39 C-0.66 38.34 -1.32 37.68 -2 37 C-1.80041664 32.93891248 0.75409912 30.93973606 3.5625 28.25 C4.38878906 27.45078125 5.21507812 26.6515625 6.06640625 25.828125 C6.70449219 25.22484375 7.34257812 24.6215625 8 24 C6.78184349 23.9845388 6.78184349 23.9845388 5.53907776 23.96876526 C-2.09836488 23.87096021 -9.73572322 23.76847052 -17.37303066 23.66066074 C-21.29984614 23.60539585 -25.22666901 23.5519703 -29.15356445 23.50268555 C-32.94020842 23.45509439 -36.72675916 23.40275376 -40.51329231 23.34705925 C-41.96101638 23.32661182 -43.40876603 23.30790276 -44.85653496 23.29092598 C-46.87764159 23.26693492 -48.8986661 23.23629925 -50.91967773 23.20532227 C-52.07217514 23.18977798 -53.22467255 23.1742337 -54.41209412 23.15821838 C-57 23 -57 23 -58 22 C-58.125 19.5 -58.125 19.5 -58 17 C-56.18502618 15.18502618 -53.36404428 15.82764607 -50.91967773 15.79467773 C-49.61840439 15.77473251 -48.31713104 15.75478729 -46.97642517 15.73423767 C-45.5454826 15.71725201 -44.11453875 15.70037325 -42.68359375 15.68359375 C-41.2277008 15.66303094 -39.77181391 15.64203466 -38.31593323 15.62062073 C-34.47727353 15.56533039 -30.63855935 15.51595198 -26.79980469 15.46777344 C-22.88536712 15.41760909 -18.97100904 15.36189664 -15.05664062 15.30664062 C-7.37116099 15.19897397 0.31438457 15.09754807 8 15 C7.26652344 14.32453125 6.53304687 13.6490625 5.77734375 12.953125 C4.37162109 11.61507812 4.37162109 11.61507812 2.9375 10.25 C1.99777344 9.36828125 1.05804688 8.4865625 0.08984375 7.578125 C-2 5 -2 5 -1.87109375 2.734375 C-1 1 -1 1 0 0 Z " fill="#B1B1B1" transform="translate(423,118)"/>
<path d="M0 0 C3.5 0.25 3.5 0.25 5.5 2.25 C5.75 5.75 5.75 5.75 5.5 9.25 C3.5 11.25 3.5 11.25 0 11.5 C-3.5 11.25 -3.5 11.25 -5.5 9.25 C-5.75 5.75 -5.75 5.75 -5.5 2.25 C-3.5 0.25 -3.5 0.25 0 0 Z " fill="#B1B1B1" transform="translate(54.5,13.75)"/>
<path d="M0 0 C3.5 0.25 3.5 0.25 5.5 2.25 C5.75 5.75 5.75 5.75 5.5 9.25 C3.5 11.25 3.5 11.25 0 11.5 C-3.5 11.25 -3.5 11.25 -5.5 9.25 C-5.75 5.75 -5.75 5.75 -5.5 2.25 C-3.5 0.25 -3.5 0.25 0 0 Z " fill="#B1B1B1" transform="translate(37.5,13.75)"/>
<path d="M0 0 C3.5 0.25 3.5 0.25 5.5 2.25 C5.75 5.75 5.75 5.75 5.5 9.25 C3.5 11.25 3.5 11.25 0 11.5 C-3.5 11.25 -3.5 11.25 -5.5 9.25 C-5.75 5.75 -5.75 5.75 -5.5 2.25 C-3.5 0.25 -3.5 0.25 0 0 Z " fill="#B1B1B1" transform="translate(20.5,13.75)"/>
</svg>
